<svg aria-hidden="true" style="position: absolute; width: 0; height: 0; overflow: hidden;" version="1.1" xmlns="http://www.w3.org/2000/svg" xmlns:xlink="http://www.w3.org/1999/xlink">
<defs>
<symbol id="icon-logo" viewBox="0 0 53 32">
<path d="M0 0h1.605v19.064h4.794v-19.064h1.605v32h-1.605v-11.33h-4.794v11.33h-1.605v-32z"></path>
<path d="M19.875 0l-3.98 20.67v11.33h-1.605v-11.33l-4.002-20.67h1.47l3.347 17.232 3.324-17.232h1.447z"></path>
<path d="M26.975 32h-4.816v-32h4.794c1.786 0 3.188 1.425 3.188 3.189v25.6c0.023 1.741-1.402 3.211-3.166 3.211zM23.765 1.606v28.789h3.188c0.859 0 1.605-0.724 1.605-1.606v-25.6c0-0.859-0.724-1.606-1.605-1.606h-3.188v0.023z"></path>
<path d="M40.678 32h-1.651l-2.826-11.33h-1.922v11.33h-1.605v-32h4.794c1.786 0 3.188 1.425 3.188 3.189v14.27c0 1.606-1.244 2.963-2.826 3.144l2.849 11.398zM34.279 19.064h3.188c0.859 0 1.605-0.724 1.605-1.606v-14.27c0-0.859-0.724-1.606-1.605-1.606h-3.188v17.481z"></path>
<path d="M45.517 20.67l-1.108 11.33h-1.447l3.211-32h3.188l3.188 32h-1.447l-1.108-11.33h-4.477zM48.072 1.606h-0.633l-1.741 17.459h4.115l-1.741-17.459z"></path>
</symbol>
<symbol id="icon-logo-next" viewBox="0 0 36 32">
<path d="M35.764 12.941c0.474 2.356-2.435 1.728-2.435 1.728-1.217-2.95-3.165-2.675-3.165-2.675 1.525 0.958 1.64 1.772 1.64 1.772-4.062-2.477-9.585-0.484-11.687 0.451-1.179-1.431-3.562-4.634-2.717-6.087 1.115-1.904 3.383-0.815 3.383-0.815 4.588-0.066 4.331-1.475 4.331-1.475-1.217 0.815-4.805 0-4.805 0 3.114 0 4.434-1.090 4.434-1.090-2.319 0.495-4.908-1.629-4.908-1.629-0.948-4.172-5.331-2.4-5.331-2.4 2.742-0.407 2.012 2.091 2.012 2.091-3.434 1.046-3.114 2.719-3.114 2.719 1.115-1.31 2.063-1.409 2.063-1.409-3.139 3.798-0.115 9.081 0.782 10.457-1.64 0.98-5.485 3.137-7.214 2.389-2.217-0.958-0.948-2.906-0.948-2.906-0.051-3.941-1.691-3.721-1.691-3.721 0.948 1.046 0 4.128 0 4.128 0-2.675-1.269-3.809-1.269-3.809 0.577 1.992-1.897 4.216-1.897 4.216-4.857 0.815-2.793 4.579-2.793 4.579-0.474-2.356 2.435-1.728 2.435-1.728 1.217 2.95 3.165 2.675 3.165 2.675-1.525-0.958-1.64-1.772-1.64-1.772 4.293 2.62 10.226 0.242 12.020-0.594 1.204 1.486 3.447 4.546 2.614 5.966-1.115 1.904-3.383 0.815-3.383 0.815-4.588 0.044-4.331 1.453-4.331 1.453 1.217-0.815 4.805 0 4.805 0-3.114 0-4.434 1.090-4.434 1.090 2.319-0.495 4.908 1.629 4.908 1.629 0.948 4.172 5.331 2.4 5.331 2.4-2.742 0.407-2.012-2.091-2.012-2.091 3.434-1.046 3.114-2.719 3.114-2.719-1.115 1.31-2.063 1.409-2.063 1.409 3.075-3.709 0.243-8.85-0.718-10.358 1.743-1.046 5.267-2.917 6.894-2.213 2.217 0.958 0.948 2.906 0.948 2.906 0.051 3.941 1.691 3.721 1.691 3.721-0.948-1.046 0-4.128 0-4.128 0 2.675 1.269 3.809 1.269 3.809-0.577-1.992 1.897-4.216 1.897-4.216 4.882-0.804 2.819-4.568 2.819-4.568z"></path>
</symbol>
<symbol id="icon-menu-button" viewBox="0 0 41 32">
<path d="M2.286 0h36.044c1.262 0 2.286 1.023 2.286 2.286v0c0 1.262-1.023 2.286-2.286 2.286h-36.044c-1.262 0-2.286-1.023-2.286-2.286v0c0-1.262 1.023-2.286 2.286-2.286z"></path>
<path d="M2.286 27.429h36.044c1.262 0 2.286 1.023 2.286 2.286v0c0 1.262-1.023 2.286-2.286 2.286h-36.044c-1.262 0-2.286-1.023-2.286-2.286v0c0-1.262 1.023-2.286 2.286-2.286z"></path>
<path d="M13.363 13.714h24.967c1.262 0 2.286 1.023 2.286 2.286v0c0 1.262-1.023 2.286-2.286 2.286h-24.967c-1.262 0-2.286-1.023-2.286-2.286v0c0-1.262 1.023-2.286 2.286-2.286z"></path>
</symbol>
<symbol id="icon-menu" viewBox="0 0 44 32">
<path d="M0.533 0h42.667v2.133h-42.667v-2.133z"></path>
<path d="M0.533 14.933h42.667v2.133h-42.667v-2.133z"></path>
<path d="M0.533 29.867h42.667v2.133h-42.667v-2.133z"></path>
</symbol>
<symbol id="icon-left" viewBox="0 0 32 32">
<path fill="none" stroke="#fff" style="stroke: var(--color1, #fff)" stroke-linejoin="round" stroke-linecap="round" stroke-miterlimit="4" stroke-width="1.6" d="M13.333 22.667l6.667-6.667-6.667-6.667M28 16c0 6.627-5.373 12-12 12s-12-5.373-12-12c0-6.627 5.373-12 12-12s12 5.373 12 12z"></path>
</symbol>
<symbol id="icon-right" viewBox="0 0 32 32">
<path fill="none" stroke="#fff" style="stroke: var(--color1, #fff)" stroke-linejoin="round" stroke-linecap="round" stroke-miterlimit="4" stroke-width="1.6" d="M18.667 22.667l-6.667-6.667 6.667-6.667M4 16c0 6.627 5.373 12 12 12s12-5.373 12-12c0-6.627-5.373-12-12-12s-12 5.373-12 12z"></path>
</symbol>
<symbol id="icon-location-Icon" viewBox="0 0 32 32">
<path fill="#c0b7e8" style="fill: var(--color2, #c0b7e8)" d="M16 2.667c5.155 0 9.333 4.179 9.333 9.333 0 1.559-0.381 3.027-1.057 4.319l-8.276 14.347-8.084-13.999c-0.796-1.374-1.249-2.967-1.249-4.667 0-5.155 4.179-9.333 9.333-9.333zM16 5.333c-3.682 0-6.667 2.985-6.667 6.667 0 1.059 0.244 2.075 0.706 2.992l0.224 0.409 5.736 9.933 5.777-10.002c0.581-1.003 0.89-2.14 0.89-3.331 0-3.682-2.985-6.667-6.667-6.667zM16 8c2.209 0 4 1.791 4 4s-1.791 4-4 4c-2.209 0-4-1.791-4-4s1.791-4 4-4zM16 10.667c-0.736 0-1.333 0.597-1.333 1.333s0.597 1.333 1.333 1.333c0.736 0 1.333-0.597 1.333-1.333s-0.597-1.333-1.333-1.333z"></path>
</symbol>
<symbol id="icon-right-menu" viewBox="0 0 32 32">
<path fill="none" stroke="#433d60" style="stroke: var(--color1, #433d60)" stroke-linejoin="round" stroke-linecap="round" stroke-miterlimit="4" stroke-width="2.5263" d="M13.333 22.667l6.667-6.667-6.667-6.667"></path>
</symbol>
<symbol id="icon-left-menu" viewBox="0 0 32 32">
<path fill="none" stroke="#433d60" style="stroke: var(--color1, #433d60)" stroke-linejoin="round" stroke-linecap="round" stroke-miterlimit="4" stroke-width="2.5263" d="M18.667 22.667l-6.667-6.667 6.667-6.667"></path>
</symbol>
<symbol id="icon-facebook" viewBox="0 0 32 32">
<path d="M0 16c0 8.837 7.163 16 16 16s16-7.163 16-16c0-8.837-7.163-16-16-16s-16 7.163-16 16zM16 8c4.4 0 8 3.6 8 8 0 4-2.9 7.4-6.9 8v-5.7h1.9l0.4-2.3h-2.2v-1.5c0-0.6 0.3-1.2 1.3-1.2h1v-2c0 0-0.9-0.2-1.8-0.2-1.8 0-3 1.1-3 3.1v1.8h-2v2.3h2v5.6c-3.8-0.6-6.7-3.9-6.7-7.9 0-4.4 3.6-8 8-8z"></path>
</symbol>
<symbol id="icon-twitter" viewBox="0 0 32 32">
<path d="M0 16c0 8.837 7.163 16 16 16s16-7.163 16-16c0-8.837-7.163-16-16-16s-16 7.163-16 16zM22.1 11.5c0.7-0.1 1.3-0.2 1.9-0.5-0.4 0.7-1 1.3-1.7 1.7 0.2 4.7-3.2 9.8-9.3 9.8-1.8 0-3.5-0.6-5-1.5 1.7 0.2 3.5-0.3 4.7-1.2-1.5 0-2.7-1-3.1-2.3 0.5 0.1 1 0 1.5-0.1-1.5-0.4-2.6-1.8-2.6-3.3 0.5 0.2 1 0.4 1.5 0.4-1.4-1-1.9-2.9-1-4.4 1.7 2 4.1 3.3 6.8 3.4-0.5-2 1.1-4 3.2-4 0.9 0 1.8 0.4 2.4 1 0.8-0.2 1.5-0.4 2.1-0.8-0.2 0.8-0.7 1.4-1.4 1.8z"></path>
</symbol>
<symbol id="icon-linkedin" viewBox="0 0 32 32">
<path d="M0 16c0-8.837 7.163-16 16-16s16 7.163 16 16c0 8.837-7.163 16-16 16s-16-7.163-16-16zM8.2 13.3v10.7h3.4v-10.7h-3.4zM8 9.9c0 1.1 0.8 1.9 1.9 1.9s1.9-0.8 1.9-1.9c0-1.1-0.8-1.9-1.9-1.9-1 0-1.9 0.8-1.9 1.9zM20.6 24h3.2v-6.6c0-3.3-2-4.4-3.9-4.4-1.7 0-2.9 1.1-3.2 1.8v-1.5h-3.2v10.7h3.4v-5.7c0-1.5 1-2.3 2-2.3s1.7 0.5 1.7 2.2v5.8z"></path>
</symbol>
<symbol id="icon-youtube" viewBox="0 0 32 32">
<path d="M18.6 16l-4.2-2.4v4.8l4.2-2.4z"></path>
<path d="M0 16c0 8.837 7.163 16 16 16s16-7.163 16-16c0-8.837-7.163-16-16-16s-16 7.163-16 16zM22.2 10.7c0.7 0.2 1.2 0.7 1.4 1.4 0.4 1.3 0.4 3.9 0.4 3.9s0 2.6-0.3 3.9c-0.2 0.7-0.7 1.2-1.4 1.4-1.3 0.3-6.3 0.3-6.3 0.3s-5.1 0-6.3-0.3c-0.7-0.2-1.2-0.7-1.4-1.4-0.3-1.3-0.3-3.9-0.3-3.9s0-2.6 0.2-3.9c0.2-0.7 0.7-1.2 1.4-1.4 1.3-0.3 6.3-0.3 6.3-0.3s5.1 0 6.3 0.3z"></path>
</symbol>
<symbol id="icon-instagram" viewBox="0 0 32 32">
<path d="M16 18.8c-1.5 0-2.8-1.2-2.8-2.8 0-1.5 1.2-2.8 2.8-2.8 1.5 0 2.8 1.2 2.8 2.8 0 1.5-1.3 2.8-2.8 2.8z"></path>
<path d="M19.4 9.2h-6.8c-0.8 0.1-1.2 0.2-1.5 0.3-0.4 0.1-0.7 0.3-1 0.6-0.237 0.237-0.35 0.475-0.485 0.762-0.036 0.076-0.073 0.155-0.115 0.238-0.015 0.046-0.033 0.095-0.052 0.148-0.105 0.286-0.248 0.676-0.248 1.353v6.8c0.1 0.8 0.2 1.2 0.3 1.5 0.1 0.4 0.3 0.7 0.6 1 0.237 0.237 0.475 0.349 0.762 0.485 0.076 0.036 0.155 0.073 0.238 0.115 0.046 0.015 0.095 0.033 0.148 0.052 0.286 0.105 0.676 0.247 1.353 0.247h6.8c0.8-0.1 1.2-0.2 1.5-0.3 0.4-0.1 0.7-0.3 1-0.6 0.237-0.237 0.349-0.475 0.485-0.762 0.036-0.076 0.073-0.155 0.115-0.238 0.015-0.046 0.033-0.095 0.052-0.148 0.105-0.286 0.247-0.676 0.247-1.352v-6.8c-0.1-0.8-0.2-1.2-0.3-1.5-0.1-0.4-0.3-0.7-0.6-1-0.237-0.237-0.475-0.35-0.762-0.485-0.076-0.036-0.155-0.073-0.238-0.115-0.046-0.015-0.095-0.033-0.148-0.052-0.286-0.105-0.676-0.248-1.352-0.248zM16 11.7c-2.4 0-4.3 1.9-4.3 4.3s1.9 4.3 4.3 4.3c2.4 0 4.3-1.9 4.3-4.3s-1.9-4.3-4.3-4.3zM21.4 11.6c0 0.552-0.448 1-1 1s-1-0.448-1-1c0-0.552 0.448-1 1-1s1 0.448 1 1z"></path>
<path d="M0 16c0 8.837 7.163 16 16 16s16-7.163 16-16c0-8.837-7.163-16-16-16s-16 7.163-16 16zM12.6 7.7h6.8c0.9 0.1 1.5 0.2 2 0.4 0.6 0.3 1 0.5 1.5 1s0.8 1 1 1.5c0.2 0.5 0.4 1.1 0.4 2v6.8c-0.1 0.9-0.2 1.5-0.4 2-0.3 0.6-0.5 1-1 1.5s-1 0.8-1.5 1c-0.5 0.2-1.1 0.4-2 0.4h-6.8c-0.9-0.1-1.5-0.2-2-0.4-0.6-0.3-1-0.5-1.5-1s-0.8-1-1-1.5c-0.2-0.5-0.4-1.1-0.4-2v-6.8c0.1-0.9 0.2-1.5 0.4-2 0.3-0.6 0.5-1 1-1.5s1-0.8 1.5-1c0.5-0.2 1.1-0.4 2-0.4z"></path>
</symbol>
<symbol id="icon-pinterest" viewBox="0 0 32 32">
<path d="M0 16c0 8.837 7.163 16 16 16s16-7.163 16-16c0-8.837-7.163-16-16-16s-16 7.163-16 16zM8 16c0-4.4 3.6-8 8-8s8 3.6 7.9 7.6c0 4.4-3.6 8-8 8-0.8 0-1.6-0.1-2.3-0.3 0.3-0.5 0.6-1.1 0.8-1.7 0.1-0.4 0.6-2.2 0.6-2.2 0.3 0.5 1.1 1 2 1 2.6 0 4.3-2.4 4.3-5.5 0-2.4-2-4.6-5.1-4.6-3.8 0-5.7 2.7-5.7 5 0 1.4 0.5 2.6 1.6 3.1 0.2 0.1 0.3 0 0.4-0.2 0.1-0.1 0.2-0.5 0.2-0.6 0.071-0.141 0.041-0.183-0.017-0.266-0.024-0.034-0.053-0.076-0.083-0.134-0.3-0.4-0.5-0.9-0.5-1.6 0-2 1.5-3.8 3.9-3.8 2.1 0 3.3 1.3 3.3 3.1 0 2.4-1 4.3-2.5 4.3-0.9 0-1.5-0.7-1.3-1.5 0.084-0.417 0.219-0.852 0.349-1.268 0.181-0.58 0.351-1.124 0.351-1.532 0-0.7-0.4-1.2-1.1-1.2-0.8 0-1.5 0.9-1.5 2.1 0 0.8 0.3 1.3 0.3 1.3s-0.8 3.7-1 4.4c-0.1 0.6-0.1 1.2-0.1 1.8-2.8-1.2-4.8-4-4.8-7.3z"></path>
</symbol>
<symbol id="icon-shape" viewBox="0 0 39 32">
<path fill="none" stroke="#c0b7e8" style="stroke: var(--color1, #c0b7e8)" stroke-linejoin="round" stroke-linecap="round" stroke-miterlimit="4" stroke-width="2.5263" d="M36.912 16h-35.088M36.912 16l-14.035 14.035M36.912 16l-14.035-14.035"></path>
</symbol>
<symbol id="icon-mail" viewBox="0 0 32 32">
<path fill="none" stroke="#c0b7e8" style="stroke: var(--color1, #c0b7e8)" stroke-linejoin="round" stroke-linecap="round" stroke-miterlimit="4" stroke-width="2.9538" d="M4.391 7.057c0.241-0.241 0.575-0.391 0.943-0.391h21.333c0.368 0 0.701 0.149 0.943 0.391M4.391 7.057c-0.241 0.241-0.391 0.575-0.391 0.943v16c0 0.736 0.597 1.333 1.333 1.333h21.333c0.736 0 1.333-0.597 1.333-1.333v-16c0-0.368-0.149-0.702-0.391-0.943M4.391 7.057l9.724 9.724c1.041 1.041 2.73 1.041 3.771 0l9.724-9.724"></path>
</symbol>
<symbol id="icon-phone-call" viewBox="0 0 32 32">
<path fill="none" stroke="#c0b7e8" style="stroke: var(--color1, #c0b7e8)" stroke-linejoin="round" stroke-linecap="round" stroke-miterlimit="4" stroke-width="3.2542" d="M19.333 8.667c0.983 0.192 1.959 0.625 2.667 1.333s1.142 1.684 1.333 2.667M20 4c2.042 0.227 3.88 1.215 5.333 2.667s2.437 3.292 2.667 5.333M27.999 21.969v3.613c0.006 1.381-1.236 2.534-2.631 2.409-12.035 0.009-21.369-9.411-21.359-21.365-0.126-1.387 1.022-2.624 2.401-2.625h3.62c0.586-0.006 1.153 0.201 1.597 0.582 1.262 1.084 2.074 4.761 1.762 6.223-0.244 1.141-1.395 1.94-2.177 2.721 1.718 3.015 4.219 5.512 7.24 7.226 0.782-0.781 1.582-1.929 2.726-2.173 1.467-0.312 5.169 0.501 6.248 1.772 0.383 0.451 0.586 1.026 0.571 1.617z"></path>
</symbol>
<symbol id="icon-component" viewBox="0 0 73 32">
<path fill="none" stroke="#c0b7e8" style="stroke: var(--color1, #c0b7e8)" stroke-linejoin="round" stroke-linecap="round" stroke-miterlimit="4" stroke-width="0.96" d="M63.627 16h-13.333M63.627 16l-5.333 5.333M63.627 16l-5.333-5.333"></path>
<path fill="none" stroke="#c0b7e8" style="stroke: var(--color1, #c0b7e8)" stroke-linejoin="miter" stroke-linecap="butt" stroke-miterlimit="4" stroke-width="0.96" d="M50.4 16h-50.4"></path>
</symbol>
<symbol id="icon-shape-button" viewBox="0 0 56 32">
<path fill="none" stroke="#433d60" style="stroke: var(--color2, #433d60)" stroke-linejoin="round" stroke-linecap="round" stroke-miterlimit="4" stroke-width="6" d="M3 4l25 25 25-25"></path>
</symbol>
</defs>
</svg>
